<svg width="217px" height="50px" viewBox="0 0 217 50" version="1.1" xmlns="http://www.w3.org/2000/svg" xmlns:xlink="http://www.w3.org/1999/xlink">
    <!-- Generator: Sketch 49.1 (51147) - http://www.bohemiancoding.com/sketch -->
    <desc>Created with Sketch.</desc>
    <defs>
        <polygon id="path-1" points="0 0.4268 46.6748 0.4268 46.6748 47.0968 0 47.0968"></polygon>
        <polygon id="path-3" points="0.3173 0.24 1.3173 0.24 1.3173 1.2395 0.3173 1.2395"></polygon>
        <polygon id="path-5" points="0 51.7605 216.075 51.7605 216.075 1.0005 0 1.0005"></polygon>
    </defs>
    <g id="Reports-dash-and-sales-bymonth-and-day" stroke="none" stroke-width="1" fill="none" fill-rule="evenodd">
        <g id="Page-1" transform="translate(0.000000, -2.000000)">
            <g id="Group-3" transform="translate(0.000000, 1.760500)">
                <mask id="mask-2" fill="white">
                    <use xlink:href="#path-1"></use>
                </mask>
                <g id="Clip-2"></g>
                <path d="M23.3348,0.4268 C10.4518,0.4268 -0.0002,10.8728 -0.0002,23.7618 C-0.0002,36.6498 10.4518,47.0968 23.3348,47.0968 C36.2238,47.0968 46.6748,36.6498 46.6748,23.7618 C46.6748,10.8728 36.2238,0.4268 23.3348,0.4268" id="Fill-1" fill="#29ABE2" mask="url(#mask-2)"></path>
            </g>
            <polygon id="Fill-4" fill="#FFFFFF" points="20.5408 7.6611 14.3428 11.2551 14.3428 21.4541 20.5408 21.4541"></polygon>
            <polygon id="Fill-6" fill="#FFFFFF" points="22.1437 7.6317 22.1437 14.8437 36.9347 23.4887 36.9337 16.1897"></polygon>
            <polygon id="Fill-8" fill="#FFFFFF" points="14.3418 29.3658 14.3418 36.6718 35.3208 24.4238 29.1368 20.8088"></polygon>
            <polygon id="Fill-10" fill="#FFFFFF" points="15.0891 38.1132 25.0981 43.9022 25.0981 35.7002 22.1501 33.9922"></polygon>
            <g id="Group-14" transform="translate(100.000000, 0.760500)">
                <mask id="mask-4" fill="white">
                    <use xlink:href="#path-3"></use>
                </mask>
                <g id="Clip-13"></g>
            </g>
            <path d="M68.2566,28.9827 C70.9346,28.9827 72.6026,27.3917 72.6026,24.6367 C72.6026,21.9977 71.4776,20.3677 67.5576,20.3677 L63.7546,20.3677 L63.7546,28.9827 L68.2566,28.9827 Z M58.7496,16.0607 L67.6356,16.0607 C70.6236,16.0607 71.9816,16.2937 73.1846,16.8367 C75.9396,18.0787 77.6856,20.7177 77.6856,24.3647 C77.6856,27.6637 75.9396,30.7287 73.0296,31.8927 L73.0296,31.9707 C73.0296,31.9707 73.4176,32.3587 73.9606,33.3287 L79.6266,43.6117 L74.0386,43.6117 L68.5666,33.3287 L63.7546,33.3287 L63.7546,43.6117 L58.7496,43.6117 L58.7496,16.0607 Z" id="Fill-15" fill="#0054A6"></path>
            <path d="M93.742,31.272 C93.664,28.594 91.996,27.159 89.823,27.159 C87.3,27.159 85.554,28.711 85.089,31.272 L93.742,31.272 Z M89.939,23.356 C95.643,23.356 98.709,27.508 98.709,32.746 C98.709,33.329 98.593,34.648 98.593,34.648 L84.934,34.648 C85.243,38.101 87.921,39.886 90.87,39.886 C94.052,39.886 96.574,37.713 96.574,37.713 L98.476,41.244 C98.476,41.244 95.449,44.077 90.521,44.077 C83.963,44.077 79.889,39.343 79.889,33.716 C79.889,27.625 84.041,23.356 89.939,23.356 Z" id="Fill-17" fill="#0054A6"></path>
            <path d="M102.9854,28.0514 L100.4244,28.0514 L100.4244,24.1324 L103.1024,24.1324 L103.1024,18.4284 L107.9134,18.4284 L107.9134,24.1324 L112.4154,24.1324 L112.4154,28.0514 L107.9134,28.0514 L107.9134,35.7344 C107.9134,38.9934 110.4744,39.4594 111.8334,39.4594 C112.3764,39.4594 112.7254,39.3814 112.7254,39.3814 L112.7254,43.6894 C112.7254,43.6894 112.1434,43.8054 111.2124,43.8054 C108.4564,43.8054 102.9854,42.9904 102.9854,36.3554 L102.9854,28.0514 Z" id="Fill-19" fill="#0054A6"></path>
            <path d="M123.136,40.2354 C125.736,40.2354 127.598,37.4414 127.598,35.0354 L127.598,34.5704 L126.745,34.5704 C124.223,34.5704 120.148,34.9194 120.148,37.6744 C120.148,38.9934 121.118,40.2354 123.136,40.2354 M126.9,31.1944 L127.56,31.1944 L127.56,30.9224 C127.56,28.3224 125.93,27.4304 123.757,27.4304 C120.924,27.4304 118.324,29.3314 118.324,29.3314 L116.461,25.8004 C116.461,25.8004 119.527,23.3554 124.223,23.3554 C129.422,23.3554 132.449,26.2274 132.449,31.2324 L132.449,43.6114 L127.909,43.6114 L127.909,41.9814 C127.909,41.2054 127.987,40.5854 127.987,40.5854 L127.909,40.5854 C127.948,40.5854 126.395,44.0774 121.894,44.0774 C118.363,44.0774 115.181,41.8654 115.181,37.9074 C115.181,31.6214 123.679,31.1944 126.9,31.1944" id="Fill-21" fill="#0054A6"></path>
            <mask id="mask-6" fill="white">
                <use xlink:href="#path-5"></use>
            </mask>
            <g id="Clip-24"></g>
            <path d="M136.601,43.6115 L141.529,43.6115 L141.529,23.8215 L136.601,23.8215 L136.601,43.6115 Z M136.601,20.4455 L141.49,20.4455 L141.49,16.0605 L136.601,16.0605 L136.601,20.4455 Z" id="Fill-23" fill="#0054A6" mask="url(#mask-6)"></path>
            <path d="M145.7212,16.0609 L150.6102,16.0609 L150.6102,36.7039 C150.6102,38.8769 151.3472,39.4209 152.6282,39.4209 C153.0162,39.4209 153.3652,39.3819 153.3652,39.3819 L153.3652,43.6889 C153.3652,43.6889 152.6282,43.8059 151.8132,43.8059 C149.0972,43.8059 145.7212,43.1069 145.7212,37.4419 L145.7212,16.0609 Z" id="Fill-25" fill="#0054A6" mask="url(#mask-6)"></path>
            <path d="M166.5206,29.7585 C169.4306,29.7585 171.1376,27.8955 171.1376,25.0245 C171.1376,22.1915 169.4306,20.3675 166.5976,20.3675 L161.8246,20.3675 L161.8246,29.7585 L166.5206,29.7585 Z M156.8196,16.0605 L167.4516,16.0605 C172.6126,16.0605 176.2216,19.6695 176.2216,25.0245 C176.2216,30.3795 172.6126,34.1045 167.4516,34.1045 L161.8246,34.1045 L161.8246,43.6115 L156.8196,43.6115 L156.8196,16.0605 Z" id="Fill-26" fill="#0054A6" mask="url(#mask-6)"></path>
            <path d="M185.1861,40.2354 C187.7861,40.2354 189.6481,37.4414 189.6481,35.0354 L189.6481,34.5704 L188.7951,34.5704 C186.2731,34.5704 182.1981,34.9194 182.1981,37.6744 C182.1981,38.9934 183.1681,40.2354 185.1861,40.2354 M188.9501,31.1944 L189.6101,31.1944 L189.6101,30.9224 C189.6101,28.3224 187.9801,27.4304 185.8071,27.4304 C182.9741,27.4304 180.3741,29.3314 180.3741,29.3314 L178.5111,25.8004 C178.5111,25.8004 181.5771,23.3554 186.2731,23.3554 C191.4721,23.3554 194.4991,26.2274 194.4991,31.2324 L194.4991,43.6114 L189.9591,43.6114 L189.9591,41.9814 C189.9591,41.2054 190.0371,40.5854 190.0371,40.5854 L189.9591,40.5854 C189.9981,40.5854 188.4451,44.0774 183.9441,44.0774 C180.4131,44.0774 177.2311,41.8654 177.2311,37.9074 C177.2311,31.6214 185.7291,31.1944 188.9501,31.1944" id="Fill-27" fill="#0054A6" mask="url(#mask-6)"></path>
            <path d="M197.6039,46.7936 C197.6039,46.7936 198.6909,47.6086 199.8159,47.6086 C201.1739,47.6086 202.4929,46.7936 203.2309,45.0476 L203.9679,43.3016 L195.6249,23.8216 L201.1739,23.8216 L205.3259,35.2296 C205.7139,36.2776 206.0629,37.9076 206.0629,37.9076 L206.1409,37.9076 C206.1409,37.9076 206.4519,36.3556 206.8009,35.3076 L210.6809,23.8216 L216.0749,23.8216 L207.2269,46.5996 C205.8309,50.2086 203.0749,51.7606 200.0869,51.7606 C197.7199,51.7606 195.9739,50.4796 195.9739,50.4796 L197.6039,46.7936 Z" id="Fill-28" fill="#0054A6" mask="url(#mask-6)"></path>
        </g>
    </g>
</svg>