<svg id="Layer_1" data-name="Layer 1" xmlns="http://www.w3.org/2000/svg" xmlns:xlink="http://www.w3.org/1999/xlink" viewBox="0 0 403.49 49.57"><defs><style>.cls-1{fill:#fff;}.cls-1,.cls-3,.cls-4{fill-rule:evenodd;}.cls-2{mask:url(#mask);}.cls-3{fill:#29abe2;}.cls-4{fill:#0054a6;}.cls-5{mask:url(#mask-2-2);}</style><mask id="mask" x="0" y="0" width="46.68" height="46.67" maskUnits="userSpaceOnUse"><g transform="translate(0 -0.19)"><g id="mask-2"><polygon id="path-1" class="cls-1" points="0 0.19 46.67 0.19 46.67 46.86 0 46.86 0 0.19"/></g></g></mask><mask id="mask-2-2" x="0" y="-1.19" width="216.07" height="50.76" maskUnits="userSpaceOnUse"><g transform="translate(0 -0.19)"><g id="mask-6"><polygon id="path-5" class="cls-1" points="0 49.76 216.07 49.76 216.07 -1 0 -1 0 49.76"/></g></g></mask></defs><title>logo-retailpay-hc</title><g id="Reports-dash-and-sales-bymonth-and-day"><g id="Page-1"><g id="Group-3"><g class="cls-2"><path id="Fill-1" class="cls-3" d="M23.33.19A23.34,23.34,0,1,0,46.67,23.52,23.33,23.33,0,0,0,23.33.19" transform="translate(0 -0.19)"/></g></g><polygon id="Fill-4" class="cls-1" points="20.54 5.47 14.34 9.07 14.34 19.27 20.54 19.27 20.54 5.47"/><polygon id="Fill-6" class="cls-1" points="22.14 5.44 22.14 12.66 36.94 21.3 36.93 14 22.14 5.44"/><polygon id="Fill-8" class="cls-1" points="14.34 27.18 14.34 34.48 35.32 22.24 29.14 18.62 14.34 27.18"/><polygon id="Fill-10" class="cls-1" points="15.09 35.93 25.1 41.72 25.1 33.51 22.15 31.8 15.09 35.93"/><path id="Fill-15" class="cls-4" d="M68.26,27a4,4,0,0,0,4.34-4.34c0-2.64-1.12-4.27-5-4.27H63.75V27ZM58.75,14.06h8.89c3,0,4.34.23,5.54.78a7.77,7.77,0,0,1,4.51,7.52A7.93,7.93,0,0,1,73,29.89V30A6.67,6.67,0,0,1,74,31.33l5.67,10.28H74L68.57,31.33H63.75V41.61h-5Z" transform="translate(0 -0.19)"/><path id="Fill-17" class="cls-4" d="M93.74,29.27c-.08-2.68-1.74-4.11-3.92-4.11a4.6,4.6,0,0,0-4.73,4.11Zm-3.8-7.91c5.7,0,8.77,4.15,8.77,9.39,0,.58-.12,1.9-.12,1.9H84.93a5.64,5.64,0,0,0,5.94,5.24,9.75,9.75,0,0,0,5.7-2.18l1.91,3.53a12.37,12.37,0,0,1-8,2.84c-6.56,0-10.63-4.74-10.63-10.36C79.89,25.62,84,21.36,89.94,21.36Z" transform="translate(0 -0.19)"/><path id="Fill-19" class="cls-4" d="M103,26.05h-2.57V22.13h2.68v-5.7h4.81v5.7h4.51v3.92h-4.51v7.68c0,3.26,2.56,3.73,3.92,3.73a4.45,4.45,0,0,0,.9-.08v4.31a8.41,8.41,0,0,1-1.52.12c-2.75,0-8.22-.82-8.22-7.45Z" transform="translate(0 -0.19)"/><path id="Fill-21" class="cls-4" d="M123.14,38.24c2.6,0,4.46-2.8,4.46-5.2v-.47h-.85c-2.53,0-6.6.35-6.6,3.1,0,1.32,1,2.57,3,2.57m3.76-9h.66v-.27c0-2.6-1.63-3.49-3.8-3.49a10.6,10.6,0,0,0-5.44,1.9l-1.86-3.53a13.38,13.38,0,0,1,7.76-2.44c5.2,0,8.23,2.87,8.23,7.87V41.61h-4.54V40a12.11,12.11,0,0,1,.08-1.39h-.08a6.42,6.42,0,0,1-6,3.49c-3.53,0-6.71-2.21-6.71-6.17,0-6.29,8.5-6.72,11.72-6.72" transform="translate(0 -0.19)"/><g class="cls-5"><path id="Fill-23" class="cls-4" d="M136.6,41.61h4.93V21.82H136.6Zm0-23.16h4.89V14.06H136.6Z" transform="translate(0 -0.19)"/></g><g class="cls-5"><path id="Fill-25" class="cls-4" d="M145.72,14.06h4.89V34.7c0,2.18.74,2.72,2,2.72a7.35,7.35,0,0,0,.74,0v4.31a11,11,0,0,1-1.56.12c-2.71,0-6.09-.7-6.09-6.37Z" transform="translate(0 -0.19)"/></g><g class="cls-5"><path id="Fill-26" class="cls-4" d="M166.52,27.76c2.91,0,4.62-1.86,4.62-4.74s-1.71-4.65-4.54-4.65h-4.78v9.39Zm-9.7-13.7h10.63c5.16,0,8.77,3.61,8.77,9s-3.61,9.08-8.77,9.08h-5.63v9.51h-5Z" transform="translate(0 -0.19)"/></g><g class="cls-5"><path id="Fill-27" class="cls-4" d="M185.19,38.24c2.6,0,4.46-2.8,4.46-5.2v-.47h-.85c-2.53,0-6.6.35-6.6,3.1,0,1.32,1,2.57,3,2.57m3.76-9h.66v-.27c0-2.6-1.63-3.49-3.8-3.49a10.6,10.6,0,0,0-5.44,1.9l-1.86-3.53a13.38,13.38,0,0,1,7.76-2.44c5.2,0,8.23,2.87,8.23,7.87V41.61H190V40a12.11,12.11,0,0,1,.08-1.39H190a6.4,6.4,0,0,1-6,3.49c-3.53,0-6.71-2.21-6.71-6.17,0-6.29,8.5-6.72,11.72-6.72" transform="translate(0 -0.19)"/></g><g class="cls-5"><path id="Fill-28" class="cls-4" d="M197.6,44.79a4.32,4.32,0,0,0,2.22.82,3.75,3.75,0,0,0,3.41-2.56L204,41.3l-8.35-19.48h5.55l4.16,11.41a25.82,25.82,0,0,1,.73,2.68h.08s.31-1.55.66-2.6l3.88-11.49h5.39L207.23,44.6a7.41,7.41,0,0,1-7.14,5.16A7.64,7.64,0,0,1,196,48.48Z" transform="translate(0 -0.19)"/></g></g></g><path d="M227.75,16.77h1.5V28.21h15.42V16.77h1.5V41.1h-1.5V29.6H229.25V41.1h-1.5Z" transform="translate(0 -0.19)"/><path d="M260.21,23.31c4.73,0,7.09,3.71,7.09,7.92,0,.38-.07.94-.07.94H253.3c0,5,3.4,7.92,7.43,7.92a7.87,7.87,0,0,0,5.39-2.19l.8,1.21a9.49,9.49,0,0,1-6.19,2.4,8.73,8.73,0,0,1-9-9.07C251.77,26.57,255.76,23.31,260.21,23.31Zm5.56,7.5c-.17-4.24-2.71-6.15-5.59-6.15a6.77,6.77,0,0,0-6.78,6.15Z" transform="translate(0 -0.19)"/><path d="M272,16.77h1.46V37.13c0,2.44,1.25,2.71,2.05,2.71a4.94,4.94,0,0,0,.52,0v1.35a3.26,3.26,0,0,1-.63.07c-1,0-3.4-.38-3.4-3.64Z" transform="translate(0 -0.19)"/><path d="M280.19,23.72h1.46v2.09a9.21,9.21,0,0,1-.1,1.39h.07a6.51,6.51,0,0,1,6.25-3.89c4.66,0,7.51,3.71,7.51,9.1s-3.23,9.1-7.72,9.1a6.65,6.65,0,0,1-6.08-3.92h-.07a7.61,7.61,0,0,1,.14,1.52V48h-1.46Zm7.47,16.37c3.41,0,6.19-2.82,6.19-7.68,0-4.69-2.5-7.68-6.05-7.68-3.19,0-6.18,2.26-6.18,7.71C281.62,36.3,283.77,40.09,287.66,40.09Z" transform="translate(0 -0.19)"/><path d="M311.43,16.36c5.77,0,8.69,3.05,8.69,3.05l-.91,1.12a11.84,11.84,0,0,0-7.74-2.75c-6,0-10.53,4.69-10.53,11s4.52,11.33,10.63,11.33a11.8,11.8,0,0,0,8.24-3.3l.93,1a12.8,12.8,0,0,1-9.17,3.68c-7.09,0-12.19-5.7-12.19-12.75S304.59,16.36,311.43,16.36Z" transform="translate(0 -0.19)"/><path d="M333.05,23.31c4.72,0,7.09,3.71,7.09,7.92,0,.38-.07.94-.07.94H326.13c0,5,3.41,7.92,7.44,7.92A7.86,7.86,0,0,0,339,37.9l.8,1.21a9.45,9.45,0,0,1-6.18,2.4,8.73,8.73,0,0,1-9-9.07C324.61,26.57,328.6,23.31,333.05,23.31Zm5.56,7.5c-.18-4.24-2.71-6.15-5.6-6.15a6.76,6.76,0,0,0-6.77,6.15Z" transform="translate(0 -0.19)"/><path d="M345,23.72h1.46v3.06a7.32,7.32,0,0,1-.14,1.43h.07a8,8,0,0,1,7.36-4.9c4.52,0,5.74,2.67,5.74,6.77v11h-1.46V30.6c0-3-.39-5.87-4.28-5.87a7.35,7.35,0,0,0-7,5.53,8.49,8.49,0,0,0-.28,2.36V41.1H345Z" transform="translate(0 -0.19)"/><path d="M366,25.15h-2.29V23.83H366V18.89h1.46v4.94H372v1.32h-4.55V34.7c0,4.59,2.74,5.18,4.13,5.18a4,4,0,0,0,.8-.07v1.35a4.89,4.89,0,0,1-.87.07c-1.8,0-5.52-.66-5.52-6.42Z" transform="translate(0 -0.19)"/><path d="M383.54,23.31c4.73,0,7.09,3.71,7.09,7.92,0,.38-.07.94-.07.94H376.63c0,5,3.4,7.92,7.43,7.92a7.87,7.87,0,0,0,5.39-2.19l.8,1.21a9.49,9.49,0,0,1-6.19,2.4,8.73,8.73,0,0,1-9-9.07C375.1,26.57,379.09,23.31,383.54,23.31Zm5.56,7.5c-.17-4.24-2.71-6.15-5.59-6.15a6.77,6.77,0,0,0-6.78,6.15Z" transform="translate(0 -0.19)"/><path d="M395.53,23.72H397V27a7.32,7.32,0,0,1-.14,1.43h.07c.87-2.68,2.82-4.87,5.56-4.87a5.24,5.24,0,0,1,1,.11v1.46a5.69,5.69,0,0,0-.8-.07c-2.71,0-4.41,2.29-5.18,4.86a12.43,12.43,0,0,0-.52,3.65V41.1h-1.46Z" transform="translate(0 -0.19)"/></svg>