
<svg width="142px" height="34px" viewBox="0 0 142 34" version="1.1" xmlns="http://www.w3.org/2000/svg" xmlns:xlink="http://www.w3.org/1999/xlink">
    <!-- Generator: Sketch 49.1 (51147) - http://www.bohemiancoding.com/sketch -->
    <desc>Created with Sketch.</desc>
    <defs>
        <polygon id="path-1" points="0 33.1892 141.142 33.1892 141.142 0.0002 0 0.0002"></polygon>
    </defs>
    <g id="Reports-dash-and-sales-bymonth-and-day" stroke="none" stroke-width="1" fill="none" fill-rule="evenodd">
        <g id="Desktop-HD" transform="translate(-25.000000, -10.000000)">
            <g id="Page-1" transform="translate(25.000000, 10.000000)">
                <path d="M15.1224,29.9726 C7.3494,29.9726 1.0484,23.6716 1.0484,15.8986 C1.0484,8.1256 7.3494,1.8246 15.1224,1.8246 C22.8954,1.8246 29.1964,8.1256 29.1964,15.8986 C29.1964,23.6716 22.8954,29.9726 15.1224,29.9726 M15.1224,0.7766 C6.7704,0.7766 0.0004,7.5476 0.0004,15.8986 C0.0004,24.2506 6.7704,31.0216 15.1224,31.0216 C23.4744,31.0216 30.2444,24.2506 30.2444,15.8986 C30.2444,7.5476 23.4744,0.7766 15.1224,0.7766" id="Fill-1" fill="#FFFFFF"></path>
                <polygon id="Fill-3" fill="#FFFFFF" points="13.3102 4.3246 9.2932 6.6536 9.2932 13.2626 13.3102 13.2626"></polygon>
                <polygon id="Fill-5" fill="#FFFFFF" points="14.3489 4.3056 14.3489 8.9796 23.9339 14.5816 23.9329 9.8516"></polygon>
                <polygon id="Fill-7" fill="#FFFFFF" points="9.293 18.39 9.293 23.125 22.888 15.187 18.881 12.845"></polygon>
                <polygon id="Fill-9" fill="#FFFFFF" points="9.7773 24.0586 16.2633 27.8106 16.2633 22.4946 14.3533 21.3886"></polygon>
                <path d="M44.4923,18.2962 C46.2433,18.2962 47.3343,17.2562 47.3343,15.4542 C47.3343,13.7292 46.5983,12.6632 44.0353,12.6632 L41.5493,12.6632 L41.5493,18.2962 L44.4923,18.2962 Z M38.2763,9.8472 L44.0863,9.8472 C46.0393,9.8472 46.9283,9.9992 47.7143,10.3552 C49.5153,11.1662 50.6573,12.8922 50.6573,15.2772 C50.6573,17.4332 49.5153,19.4382 47.6133,20.1992 L47.6133,20.2502 C47.6133,20.2502 47.8663,20.5032 48.2223,21.1382 L51.9263,27.8612 L48.2723,27.8612 L44.6953,21.1382 L41.5493,21.1382 L41.5493,27.8612 L38.2763,27.8612 L38.2763,9.8472 Z" id="Fill-11" fill="#FFFFFF"></path>
                <path d="M61.1557,19.793 C61.1047,18.042 60.0137,17.104 58.5927,17.104 C56.9437,17.104 55.8027,18.118 55.4977,19.793 L61.1557,19.793 Z M58.6697,14.617 C62.3987,14.617 64.4037,17.332 64.4037,20.757 C64.4037,21.138 64.3267,22 64.3267,22 L55.3967,22 C55.5987,24.258 57.3497,25.425 59.2777,25.425 C61.3587,25.425 63.0077,24.005 63.0077,24.005 L64.2507,26.313 C64.2507,26.313 62.2717,28.165 59.0497,28.165 C54.7617,28.165 52.0977,25.07 52.0977,21.391 C52.0977,17.408 54.8127,14.617 58.6697,14.617 Z" id="Fill-13" fill="#FFFFFF"></path>
                <path d="M67.1995,17.6872 L65.5255,17.6872 L65.5255,15.1242 L67.2755,15.1242 L67.2755,11.3952 L70.4215,11.3952 L70.4215,15.1242 L73.3655,15.1242 L73.3655,17.6872 L70.4215,17.6872 L70.4215,22.7102 C70.4215,24.8422 72.0965,25.1462 72.9845,25.1462 C73.3395,25.1462 73.5685,25.0952 73.5685,25.0952 L73.5685,27.9122 C73.5685,27.9122 73.1875,27.9882 72.5785,27.9882 C70.7765,27.9882 67.1995,27.4552 67.1995,23.1162 L67.1995,17.6872 Z" id="Fill-15" fill="#FFFFFF"></path>
                <path d="M80.3746,25.6537 C82.0746,25.6537 83.2926,23.8267 83.2926,22.2537 L83.2926,21.9497 L82.7346,21.9497 C81.0856,21.9497 78.4206,22.1777 78.4206,23.9797 C78.4206,24.8417 79.0556,25.6537 80.3746,25.6537 M82.8356,19.7427 L83.2666,19.7427 L83.2666,19.5647 C83.2666,17.8647 82.2016,17.2817 80.7806,17.2817 C78.9286,17.2817 77.2286,18.5247 77.2286,18.5247 L76.0106,16.2157 C76.0106,16.2157 78.0146,14.6167 81.0856,14.6167 C84.4846,14.6167 86.4636,16.4947 86.4636,19.7677 L86.4636,27.8607 L83.4956,27.8607 L83.4956,26.7957 C83.4956,26.2877 83.5456,25.8827 83.5456,25.8827 L83.4956,25.8827 C83.5206,25.8827 82.5056,28.1657 79.5626,28.1657 C77.2536,28.1657 75.1736,26.7197 75.1736,24.1317 C75.1736,20.0217 80.7296,19.7427 82.8356,19.7427" id="Fill-17" fill="#FFFFFF"></path>
                <mask id="mask-2" fill="white">
                    <use xlink:href="#path-1"></use>
                </mask>
                <g id="Clip-20"></g>
                <path d="M89.179,27.8612 L92.401,27.8612 L92.401,14.9222 L89.179,14.9222 L89.179,27.8612 Z M89.179,12.7142 L92.376,12.7142 L92.376,9.8472 L89.179,9.8472 L89.179,12.7142 Z" id="Fill-19" fill="#FFFFFF" mask="url(#mask-2)"></path>
                <path d="M95.1418,9.8474 L98.3388,9.8474 L98.3388,23.3444 C98.3388,24.7654 98.8208,25.1214 99.6578,25.1214 C99.9118,25.1214 100.1398,25.0954 100.1398,25.0954 L100.1398,27.9124 C100.1398,27.9124 99.6578,27.9884 99.1248,27.9884 C97.3488,27.9884 95.1418,27.5314 95.1418,23.8274 L95.1418,9.8474 Z" id="Fill-21" fill="#FFFFFF" mask="url(#mask-2)"></path>
                <path d="M108.7412,18.8034 C110.6442,18.8034 111.7602,17.5854 111.7602,15.7084 C111.7602,13.8564 110.6442,12.6634 108.7922,12.6634 L105.6712,12.6634 L105.6712,18.8034 L108.7412,18.8034 Z M102.3982,9.8474 L109.3502,9.8474 C112.7242,9.8474 115.0842,12.2074 115.0842,15.7084 C115.0842,19.2094 112.7242,21.6454 109.3502,21.6454 L105.6712,21.6454 L105.6712,27.8614 L102.3982,27.8614 L102.3982,9.8474 Z" id="Fill-22" fill="#FFFFFF" mask="url(#mask-2)"></path>
                <path d="M120.9455,25.6537 C122.6455,25.6537 123.8635,23.8267 123.8635,22.2537 L123.8635,21.9497 L123.3055,21.9497 C121.6565,21.9497 118.9915,22.1777 118.9915,23.9797 C118.9915,24.8417 119.6265,25.6537 120.9455,25.6537 M123.4065,19.7427 L123.8375,19.7427 L123.8375,19.5647 C123.8375,17.8647 122.7725,17.2817 121.3515,17.2817 C119.4995,17.2817 117.7995,18.5247 117.7995,18.5247 L116.5815,16.2157 C116.5815,16.2157 118.5855,14.6167 121.6565,14.6167 C125.0555,14.6167 127.0345,16.4947 127.0345,19.7677 L127.0345,27.8607 L124.0665,27.8607 L124.0665,26.7957 C124.0665,26.2877 124.1165,25.8827 124.1165,25.8827 L124.0665,25.8827 C124.0915,25.8827 123.0765,28.1657 120.1335,28.1657 C117.8245,28.1657 115.7445,26.7197 115.7445,24.1317 C115.7445,20.0217 121.3005,19.7427 123.4065,19.7427" id="Fill-23" fill="#FFFFFF" mask="url(#mask-2)"></path>
                <path d="M129.0647,29.9416 C129.0647,29.9416 129.7757,30.4746 130.5107,30.4746 C131.3987,30.4746 132.2617,29.9416 132.7437,28.7996 L133.2257,27.6576 L127.7707,14.9216 L131.3987,14.9216 L134.1137,22.3806 C134.3677,23.0656 134.5957,24.1316 134.5957,24.1316 L134.6467,24.1316 C134.6467,24.1316 134.8497,23.1166 135.0777,22.4316 L137.6147,14.9216 L141.1417,14.9216 L135.3567,29.8146 C134.4437,32.1746 132.6417,33.1896 130.6887,33.1896 C129.1407,33.1896 127.9987,32.3516 127.9987,32.3516 L129.0647,29.9416 Z" id="Fill-24" fill="#FFFFFF" mask="url(#mask-2)"></path>
            </g>
        </g>
    </g>
</svg>